<svg width="144" height="33" viewBox="0 0 144 33" fill="none" xmlns="http://www.w3.org/2000/svg">
<g filter="url(#filter0_dd_46_77)">
<path d="M20.4545 8.25C20.2955 7.69697 20.072 7.20833 19.7841 6.78409C19.4962 6.35227 19.1439 5.98864 18.7273 5.69318C18.3182 5.39015 17.8485 5.15909 17.3182 5C16.7955 4.84091 16.2159 4.76136 15.5795 4.76136C14.3902 4.76136 13.3447 5.05682 12.4432 5.64773C11.5492 6.23864 10.8523 7.09848 10.3523 8.22727C9.85227 9.34848 9.60227 10.7197 9.60227 12.3409C9.60227 13.9621 9.84849 15.3409 10.3409 16.4773C10.8333 17.6136 11.5303 18.4811 12.4318 19.0795C13.3333 19.6705 14.3977 19.9659 15.625 19.9659C16.7386 19.9659 17.6894 19.7689 18.4773 19.375C19.2727 18.9735 19.8788 18.4091 20.2955 17.6818C20.7197 16.9545 20.9318 16.0947 20.9318 15.1023L21.9318 15.25H15.9318V11.5455H25.6705V14.4773C25.6705 16.5227 25.2386 18.2803 24.375 19.75C23.5114 21.2121 22.322 22.3409 20.8068 23.1364C19.2917 23.9242 17.5568 24.3182 15.6023 24.3182C13.4205 24.3182 11.5038 23.8371 9.85227 22.875C8.20076 21.9053 6.91288 20.5303 5.98864 18.75C5.07197 16.9621 4.61364 14.8409 4.61364 12.3864C4.61364 10.5 4.88636 8.81818 5.43182 7.34091C5.98485 5.85606 6.75758 4.59848 7.75 3.56818C8.74242 2.53788 9.89773 1.75379 11.2159 1.21591C12.5341 0.678029 13.9621 0.40909 15.5 0.40909C16.8182 0.40909 18.0455 0.602272 19.1818 0.988636C20.3182 1.36742 21.3258 1.9053 22.2045 2.60227C23.0909 3.29924 23.8144 4.12879 24.375 5.09091C24.9356 6.04545 25.2955 7.09848 25.4545 8.25H20.4545ZM32.0191 24H26.7464L34.7805 0.727272H41.1214L49.1441 24H43.8714L38.0418 6.04545H37.86L32.0191 24ZM31.6895 14.8523H44.1441V18.6932H31.6895V14.8523ZM51.3052 0.727272H57.3734L63.7825 16.3636H64.0552L70.4643 0.727272H76.5325V24H71.7598V8.85227H71.5666L65.5439 23.8864H62.2939L56.2711 8.79545H56.078V24H51.3052V0.727272ZM79.9465 24V0.727272H95.6283V4.78409H84.8669V10.3295H94.8215V14.3864H84.8669V19.9432H95.6738V24H79.9465ZM107.15 24H98.9002V0.727272H107.218C109.559 0.727272 111.574 1.19318 113.264 2.125C114.953 3.04924 116.253 4.37879 117.162 6.11364C118.078 7.84848 118.537 9.92424 118.537 12.3409C118.537 14.7652 118.078 16.8485 117.162 18.5909C116.253 20.3333 114.946 21.6705 113.241 22.6023C111.544 23.5341 109.514 24 107.15 24ZM103.821 19.7841H106.946C108.4 19.7841 109.624 19.5265 110.616 19.0114C111.616 18.4886 112.366 17.6818 112.866 16.5909C113.374 15.4924 113.628 14.0758 113.628 12.3409C113.628 10.6212 113.374 9.21591 112.866 8.125C112.366 7.03409 111.62 6.23106 110.628 5.71591C109.635 5.20076 108.412 4.94318 106.957 4.94318H103.821V19.7841ZM121.541 24V0.727272H130.86C132.572 0.727272 134 0.98106 135.144 1.48864C136.288 1.99621 137.148 2.70076 137.723 3.60227C138.299 4.49621 138.587 5.52652 138.587 6.69318C138.587 7.60227 138.405 8.40152 138.041 9.09091C137.678 9.77273 137.178 10.3333 136.541 10.7727C135.913 11.2045 135.193 11.5114 134.382 11.6932V11.9205C135.269 11.9583 136.098 12.2083 136.871 12.6705C137.651 13.1326 138.284 13.7803 138.769 14.6136C139.254 15.4394 139.496 16.4242 139.496 17.5682C139.496 18.803 139.189 19.9053 138.576 20.875C137.97 21.8371 137.072 22.5985 135.882 23.1591C134.693 23.7197 133.227 24 131.485 24H121.541ZM126.462 19.9773H130.473C131.845 19.9773 132.845 19.7159 133.473 19.1932C134.102 18.6629 134.416 17.9583 134.416 17.0795C134.416 16.4356 134.261 15.8674 133.951 15.375C133.64 14.8826 133.197 14.4962 132.621 14.2159C132.053 13.9356 131.375 13.7955 130.587 13.7955H126.462V19.9773ZM126.462 10.4659H130.11C130.784 10.4659 131.382 10.3485 131.905 10.1136C132.435 9.87121 132.852 9.5303 133.155 9.09091C133.466 8.65152 133.621 8.125 133.621 7.51136C133.621 6.67045 133.322 5.99242 132.723 5.47727C132.132 4.96212 131.291 4.70454 130.201 4.70454H126.462V10.4659Z" fill="black"/>
</g>
<defs>
<filter id="filter0_dd_46_77" x="0.613525" y="0.409119" width="142.883" height="31.9091" filterUnits="userSpaceOnUse" color-interpolation-filters="sRGB">
<feFlood flood-opacity="0" result="BackgroundImageFix"/>
<feColorMatrix in="SourceAlpha" type="matrix" values="0 0 0 0 0 0 0 0 0 0 0 0 0 0 0 0 0 0 127 0" result="hardAlpha"/>
<feOffset dy="4"/>
<feGaussianBlur stdDeviation="2"/>
<feComposite in2="hardAlpha" operator="out"/>
<feColorMatrix type="matrix" values="0 0 0 0 0 0 0 0 0 0 0 0 0 0 0 0 0 0 0.25 0"/>
<feBlend mode="normal" in2="BackgroundImageFix" result="effect1_dropShadow_46_77"/>
<feColorMatrix in="SourceAlpha" type="matrix" values="0 0 0 0 0 0 0 0 0 0 0 0 0 0 0 0 0 0 127 0" result="hardAlpha"/>
<feOffset dy="4"/>
<feGaussianBlur stdDeviation="2"/>
<feComposite in2="hardAlpha" operator="out"/>
<feColorMatrix type="matrix" values="0 0 0 0 0 0 0 0 0 0 0 0 0 0 0 0 0 0 0.25 0"/>
<feBlend mode="normal" in2="effect1_dropShadow_46_77" result="effect2_dropShadow_46_77"/>
<feBlend mode="normal" in="SourceGraphic" in2="effect2_dropShadow_46_77" result="shape"/>
</filter>
</defs>
</svg>
